<svg width="25" height="24" viewBox="0 0 25 24" fill="none" xmlns="http://www.w3.org/2000/svg">
<g id="message-chat-circle">
<path id="Icon" d="M6.76104 11.2288C6.69888 10.8282 6.66663 10.4179 6.66663 10C6.66663 5.58172 10.2719 2 14.7193 2C19.1666 2 22.7719 5.58172 22.7719 10C22.7719 10.9981 22.5879 11.9535 22.2518 12.8345C22.182 13.0175 22.1471 13.109 22.1313 13.1804C22.1156 13.2512 22.1095 13.301 22.1078 13.3735C22.1061 13.4466 22.116 13.5272 22.1358 13.6883L22.5384 16.9585C22.582 17.3125 22.6038 17.4895 22.5449 17.6182C22.4933 17.731 22.4017 17.8205 22.2878 17.8695C22.1578 17.9254 21.9813 17.8995 21.6284 17.8478L18.4431 17.3809C18.2768 17.3565 18.1936 17.3443 18.1179 17.3448C18.043 17.3452 17.9911 17.3507 17.9178 17.3661C17.8437 17.3817 17.749 17.4172 17.5597 17.4881C16.6763 17.819 15.7191 18 14.7193 18C14.3011 18 13.8903 17.9683 13.4893 17.9073M8.29825 22C11.2631 22 13.6667 19.5376 13.6667 16.5C13.6667 13.4624 11.2631 11 8.29825 11C5.33335 11 2.92983 13.4624 2.92983 16.5C2.92983 17.1106 3.02695 17.6979 3.20622 18.2467C3.282 18.4787 3.31989 18.5947 3.33233 18.6739C3.34531 18.7567 3.34759 18.8031 3.34275 18.8867C3.33812 18.9668 3.31809 19.0573 3.27802 19.2383L2.66667 22L5.66147 21.591C5.82494 21.5687 5.90667 21.5575 5.97804 21.558C6.05319 21.5585 6.09308 21.5626 6.16678 21.5773C6.23678 21.5912 6.34083 21.6279 6.54894 21.7014C7.09726 21.8949 7.68578 22 8.29825 22Z" stroke="#414651" stroke-width="2" stroke-linecap="round" stroke-linejoin="round"/>
</g>
</svg>
